<svg xmlns="http://www.w3.org/2000/svg" xmlns:xlink="http://www.w3.org/1999/xlink" width="356" height="356" viewBox="0 0 356 356">
    <defs>
        <path id="a" d="M0 0h356v356H0z"/>
        <path id="c" d="M40.95 41H.115V.163H40.95z"/>
        <path id="e" d="M35.636 10H.266V.035h35.37V10z"/>
        <path id="g" d="M16.834 10H.131V.035h16.703z"/>
        <path id="i" d="M40.95 41H.115V.163H40.95V41z"/>
        <path id="k" d="M42.637 10H.177V.035h42.46V10z"/>
        <path id="m" d="M9.864 10H.297V.035h9.567V10z"/>
    </defs>
    <g fill="none" fill-rule="evenodd">
        <mask id="b" fill="#fff">
            <use xlink:href="#a"/>
        </mask>
        <use fill="#FFF" fill-opacity="0" xlink:href="#a"/>
        <rect width="246" height="38" x="75" y="71" fill="#EEF8FF" fill-rule="nonzero" mask="url(#b)" rx="19" transform="rotate(-26.23 198 90)"/>
        <rect width="246" height="38" x="34" y="134" fill="#EEF8FF" fill-rule="nonzero" mask="url(#b)" rx="19" transform="rotate(-26.23 157 153)"/>
        <rect width="246" height="38" x="91" y="147" fill="#EEF8FF" fill-rule="nonzero" mask="url(#b)" rx="19" transform="rotate(-33.59 214 166)"/>
        <rect width="212" height="38" x="83" y="205" fill="#EEF8FF" fill-rule="nonzero" mask="url(#b)" rx="19" transform="rotate(-33.59 189 224)"/>
        <rect width="176" height="38" x="91" y="253" fill="#EEF8FF" fill-rule="nonzero" mask="url(#b)" rx="19" transform="rotate(-33.59 179 272)"/>
        <path d="M55 309h19" mask="url(#b)"/>
        <g mask="url(#b)">
            <path fill="#C7D6D5" d="M108.8 214.473l-12.422-40.014c-1.483-4.775 1.53-9.75 6.727-11.112 5.198-1.362 10.613 1.405 12.095 6.18l12.422 40.013c1.483 4.775-1.529 9.75-6.727 11.113-5.197 1.362-10.612-1.405-12.095-6.18"/>
            <path fill="#B80A59" d="M233.265 232.332c-1.214 3.874-5.13 6.548-9.587 6.548h-80.357c-4.457 0-8.371-2.674-9.586-6.548a8.117 8.117 0 0 1-.25-3.9c-.976-5.382 3.619-10.432 9.836-10.432h80.357c6.218 0 10.813 5.05 9.837 10.431a8.121 8.121 0 0 1-.25 3.9m-11.284 36c-1.214 3.875-5.13 6.549-9.587 6.549h-57.788c-4.458 0-8.372-2.674-9.587-6.548a8.122 8.122 0 0 1-.25-3.9c-.976-5.381 3.62-10.432 9.837-10.432h57.788c6.218 0 10.813 5.05 9.837 10.431a8.116 8.116 0 0 1-.25 3.9M250.031 200H116.969c-6.61 0-11.387 5.707-9.586 11.452l2.052 6.548 5.642 18 5.643 18 5.642 18 3.59 11.452c1.214 3.874 5.129 6.548 9.585 6.548h87.925c4.457 0 8.373-2.674 9.587-6.548l3.59-11.452 5.642-18 5.642-18 5.642-18 2.052-6.548c1.801-5.745-2.977-11.452-9.586-11.452"/>
            <path fill="#DE125C" d="M224.062 235.244h-80.124c-4.444 0-8.348-2.56-9.559-6.267a7.86 7.86 0 0 1-.25-.977 7.47 7.47 0 0 0 .25 3.733c1.211 3.708 5.115 6.267 9.559 6.267h80.124c4.444 0 8.348-2.56 9.56-6.267a7.474 7.474 0 0 0 .248-3.733c-.061.325-.143.65-.249.977-1.21 3.707-5.115 6.267-9.559 6.267M212.126 271.244h-57.252c-4.416 0-8.294-2.56-9.497-6.267a7.958 7.958 0 0 1-.248-.977 7.52 7.52 0 0 0 .248 3.733c1.203 3.708 5.081 6.267 9.497 6.267h57.252c4.416 0 8.294-2.56 9.497-6.267a7.52 7.52 0 0 0 .248-3.733c-.06.325-.142.65-.248.977-1.203 3.707-5.081 6.267-9.497 6.267"/>
            <path fill="#1373E7" d="M106.996 181H68.004C63.03 181 59 176.97 59 172s4.031-9 9.004-9h38.992c4.973 0 9.004 4.03 9.004 9s-4.031 9-9.004 9"/>
            <path fill="#232BAD" d="M108 172.5c0 1.933-1.791 3.5-4 3.5-2.21 0-4-1.567-4-3.5s1.79-3.5 4-3.5c2.209 0 4 1.567 4 3.5"/>
            <g transform="translate(206 297)">
                <mask id="d" fill="#fff">
                    <use xlink:href="#c"/>
                </mask>
                <path fill="#1373E7" d="M20.532 31.386c-5.967 0-10.804-4.837-10.804-10.804 0-5.967 4.837-10.805 10.804-10.805 5.967 0 10.805 4.838 10.805 10.805s-4.838 10.804-10.805 10.804m0-31.223C9.255.163.114 9.305.114 20.582.114 31.858 9.255 41 20.532 41s20.419-9.142 20.419-20.418C40.95 9.305 31.809.163 20.532.163" mask="url(#d)"/>
            </g>
            <path fill="#174FCC" d="M226.5 326.197a8.697 8.697 0 1 1 8.697-8.697 8.696 8.696 0 0 1-8.697 8.697m0-19.197c-5.799 0-10.5 4.701-10.5 10.5 0 5.8 4.701 10.5 10.5 10.5 5.8 0 10.5-4.7 10.5-10.5 0-5.799-4.7-10.5-10.5-10.5"/>
            <g transform="translate(194 328)">
                <mask id="f" fill="#fff">
                    <use xlink:href="#e"/>
                </mask>
                <path fill="#1373E7" d="M4.997 10h25.908c2.613 0 4.731-2.23 4.731-4.983 0-2.752-2.118-4.982-4.73-4.982H4.996c-2.612 0-4.73 2.23-4.73 4.982C.266 7.77 2.384 10 4.996 10" mask="url(#f)"/>
            </g>
            <g transform="translate(175 328)">
                <mask id="h" fill="#fff">
                    <use xlink:href="#g"/>
                </mask>
                <path fill="#1373E7" d="M4.859 10h7.247c2.611 0 4.728-2.23 4.728-4.983 0-2.752-2.117-4.982-4.728-4.982H4.86C2.249.035.131 2.265.131 5.017.131 7.77 2.248 10 4.859 10" mask="url(#h)"/>
            </g>
            <g transform="translate(125 297)">
                <mask id="j" fill="#fff">
                    <use xlink:href="#i"/>
                </mask>
                <path fill="#1373E7" d="M20.532 31.386c-5.967 0-10.804-4.837-10.804-10.804 0-5.967 4.837-10.805 10.804-10.805 5.967 0 10.805 4.838 10.805 10.805s-4.838 10.804-10.805 10.804m0-31.223C9.255.163.114 9.305.114 20.582.114 31.858 9.255 41 20.532 41s20.419-9.142 20.419-20.418C40.95 9.305 31.809.163 20.532.163" mask="url(#j)"/>
            </g>
            <path fill="#174FCC" d="M145.5 326.197a8.697 8.697 0 1 1 8.697-8.697 8.696 8.696 0 0 1-8.697 8.697m0-19.197c-5.799 0-10.5 4.701-10.5 10.5 0 5.8 4.701 10.5 10.5 10.5 5.8 0 10.5-4.7 10.5-10.5 0-5.799-4.7-10.5-10.5-10.5"/>
            <g transform="translate(106 328)">
                <mask id="l" fill="#fff">
                    <use xlink:href="#k"/>
                </mask>
                <path fill="#1373E7" d="M4.894 10H37.92c2.605 0 4.717-2.23 4.717-4.983 0-2.752-2.112-4.982-4.717-4.982H4.894C2.289.035.176 2.265.176 5.017.176 7.77 2.29 10 4.894 10" mask="url(#l)"/>
            </g>
            <g transform="translate(93 328)">
                <mask id="n" fill="#fff">
                    <use xlink:href="#m"/>
                </mask>
                <path fill="#1373E7" d="M5.08 10c2.642 0 4.784-2.23 4.784-4.983 0-2.752-2.142-4.982-4.783-4.982C2.439.035.297 2.265.297 5.017.297 7.77 2.439 10 5.081 10" mask="url(#n)"/>
            </g>
            <path fill="#1373E7" d="M76.619 338h7.763c2.55 0 4.618-2.239 4.618-5s-2.068-5-4.618-5h-7.763c-2.55 0-4.619 2.239-4.619 5s2.068 5 4.619 5"/>
        </g>
        <g>
            <path fill="#8CC472" d="M185 122h14a6 6 0 0 1 6 6v28.565a5.435 5.435 0 0 1-5.435 5.435 15.792 15.792 0 0 0-9.718 3.345L185 169.129V122z"/>
            <path fill="#76B758" d="M185 122h-14a6 6 0 0 0-6 6v28.565a5.435 5.435 0 0 0 5.435 5.435c3.522 0 6.942 1.177 9.718 3.345l4.847 3.784V122z"/>
            <g fill="#FFF">
                <path d="M176 142h18v4h-18z"/>
                <path d="M187 135v18h-4v-18z"/>
            </g>
        </g>
    </g>
</svg>
